<svg width="24" height="25" fill="none" xmlns="http://www.w3.org/2000/svg"><path fill-rule="evenodd" clip-rule="evenodd" d="M20.333 6.962c1.907 1.912 3.053 4.446 3.053 7.145 0 5.57-4.632 10.102-10.197 10.102h-.005a10.07 10.07 0 01-4.828-1.229L3 24.386l1.433-5.233a10.113 10.113 0 01-1.347-5.05C3.086 8.532 7.62 4 13.19 4c2.698 0 5.237 1.051 7.144 2.962z" fill="#F1ECE1"/><path fill-rule="evenodd" clip-rule="evenodd" d="M17.5 3.22c1.925 1.93 3.082 4.488 3.082 7.213 0 5.623-4.677 10.199-10.295 10.199h-.005a10.17 10.17 0 01-4.875-1.24L0 20.811l1.447-5.284a10.21 10.21 0 018.84-15.3c2.724 0 5.288 1.062 7.213 2.992zM5.82 13.216l2.442-1.956a.453.453 0 01.558-.002l1.807 1.46c.542.42 1.317.272 1.678-.32l2.271-3.743c.22-.357-.207-.76-.532-.505l-2.44 1.922a.452.452 0 01-.56.002L9.238 8.648a1.139 1.139 0 00-1.678.32l-2.272 3.743c-.22.357.206.761.532.505zm13.04-2.783c0 4.677-3.901 8.48-8.573 8.48a8.462 8.462 0 01-4.319-1.18l-.308-.184-3.207.84.855-3.128-.202-.321a8.449 8.449 0 01-1.296-4.512c0-4.672 3.804-8.476 8.481-8.476 2.265 0 4.392.882 5.991 2.485 1.599 1.604 2.582 3.73 2.578 5.996z" fill="#C9C5BA"/></svg>